<?xml version="1.0" standalone="no"?>
<!DOCTYPE svg PUBLIC "-//W3C//DTD SVG 20010904//EN"
 "http://www.w3.org/TR/2001/REC-SVG-20010904/DTD/svg10.dtd">
<svg version="1.0" xmlns="http://www.w3.org/2000/svg"
 width="878.000000pt" height="1280.000000pt" viewBox="0 0 878.000000 1280.000000"
 preserveAspectRatio="xMidYMid meet">
<g transform="translate(0.000000,1280.000000) scale(0.100000,-0.100000)"
fill="#000000" stroke="none">
<path d="M6253 12753 c-24 -57 -38 -130 -58 -312 -9 -74 -20 -153 -25 -175 -6
-23 -24 -138 -40 -256 -31 -216 -43 -257 -80 -267 -10 -3 -70 -28 -132 -55
-62 -28 -142 -61 -177 -75 -117 -44 -149 -84 -95 -120 24 -16 32 -16 132 0 59
10 138 17 175 17 60 0 68 -2 64 -17 -16 -56 -17 -110 -3 -128 27 -36 19 -79
-24 -131 -49 -60 -100 -154 -100 -186 0 -13 11 -39 25 -58 l25 -34 -22 -23
c-27 -29 -33 -29 -102 3 -47 21 -59 24 -72 13 -20 -16 -11 -50 26 -103 37 -53
78 -92 113 -105 37 -14 36 -53 -3 -110 -17 -24 -30 -51 -30 -60 0 -9 -12 -34
-25 -56 -18 -29 -25 -54 -25 -92 l0 -53 203 0 c157 0 216 -4 257 -16 59 -17
105 -57 116 -98 18 -75 -80 -197 -291 -360 -67 -53 -152 -128 -189 -167 -72
-76 -156 -185 -156 -202 0 -5 -18 -34 -41 -63 -72 -94 -182 -324 -233 -489
-25 -82 -50 -168 -56 -190 -8 -35 -24 -52 -121 -129 -128 -102 -188 -134 -385
-204 -77 -28 -212 -79 -300 -115 -87 -36 -209 -81 -271 -101 -61 -20 -123 -46
-138 -58 l-26 -20 -44 31 c-50 36 -171 86 -231 96 -29 4 -58 0 -102 -14 -77
-26 -78 -26 -145 5 -61 27 -61 27 -214 -3 -75 -15 -85 -15 -100 -1 -32 28 -80
47 -158 63 -93 19 -210 61 -226 81 -10 12 -8 20 9 42 12 15 38 56 59 92 100
177 323 468 379 495 41 19 71 9 106 -37 14 -18 38 -40 54 -48 16 -8 56 -34 88
-58 66 -48 96 -51 110 -10 7 19 5 39 -8 72 -22 57 -124 203 -192 273 -81 85
-115 74 -246 -79 -99 -115 -304 -364 -435 -527 -59 -74 -114 -137 -120 -139
-27 -8 -10 24 70 133 45 62 99 139 119 172 20 32 91 117 158 188 135 144 278
316 318 384 52 88 22 191 -66 228 -32 13 -38 13 -81 -9 -47 -25 -71 -56 -196
-257 -84 -135 -314 -468 -390 -565 -40 -50 -89 -117 -109 -149 -40 -62 -59
-76 -84 -60 -19 11 -10 -5 -126 234 -52 107 -102 222 -110 255 -9 32 -27 106
-41 163 -45 182 -120 328 -251 486 -77 92 -168 214 -204 273 -39 64 -38 72 44
239 l54 110 108 6 c120 7 179 20 208 45 16 15 18 26 12 92 -3 41 -9 87 -12
103 -6 24 -4 27 20 27 23 0 31 -8 52 -55 29 -66 46 -76 81 -44 27 25 73 113
73 139 0 43 -26 98 -62 131 l-39 37 41 47 c50 58 49 68 -21 174 -45 68 -49 80
-49 134 0 32 5 78 11 103 14 53 11 52 165 24 185 -35 268 5 182 87 -41 38 -77
57 -198 103 l-94 36 -12 75 c-23 142 -85 260 -186 355 -72 68 -136 99 -239
118 -226 40 -482 23 -618 -41 -51 -25 -161 -132 -198 -195 -32 -53 -55 -129
-68 -221 -9 -66 -55 -115 -163 -175 -107 -59 -185 -130 -180 -163 3 -21 8 -24
48 -23 25 1 74 8 110 16 38 9 70 12 76 7 7 -6 13 -59 16 -132 5 -132 9 -143
71 -225 47 -62 71 -139 86 -279 6 -54 13 -119 16 -145 5 -45 3 -50 -33 -90
-59 -65 -120 -156 -127 -191 -4 -18 -23 -55 -41 -84 -43 -65 -109 -207 -130
-279 -8 -29 -19 -56 -24 -59 -12 -8 -104 -292 -125 -386 -22 -101 -31 -424
-16 -604 6 -77 21 -192 34 -255 20 -106 22 -143 21 -465 0 -196 -5 -390 -12
-440 -76 -606 -102 -926 -102 -1277 0 -215 10 -280 50 -320 16 -15 87 -56 159
-90 l131 -61 0 -196 c0 -122 -8 -268 -20 -386 -12 -118 -24 -337 -30 -575 -11
-423 -15 -468 -65 -745 -27 -151 -49 -232 -104 -395 -38 -113 -77 -243 -86
-290 -27 -141 -56 -259 -91 -370 -45 -144 -254 -997 -254 -1038 0 -19 -9 -70
-21 -114 -11 -45 -40 -194 -65 -332 -56 -311 -88 -471 -121 -605 -35 -143 -24
-235 36 -305 9 -10 62 -40 119 -67 76 -36 119 -63 165 -107 204 -193 370 -268
623 -279 107 -5 125 -3 167 15 66 29 78 60 48 117 -30 56 -128 154 -211 208
-41 27 -82 66 -112 106 l-47 62 5 107 c21 472 54 695 169 1167 76 307 222 765
244 765 12 0 21 -191 21 -474 1 -390 14 -626 55 -936 57 -438 80 -512 179
-562 49 -25 117 -20 190 12 49 22 51 22 133 6 147 -29 292 -38 543 -34 220 3
249 5 285 23 62 31 62 85 0 148 -52 54 -123 86 -213 97 -42 6 -118 22 -167 36
-50 14 -107 30 -127 36 -44 12 -41 6 -97 233 -61 251 -80 468 -88 1015 -5 356
-4 395 16 520 41 267 62 631 76 1295 6 273 16 419 29 432 3 4 65 -6 138 -22
102 -21 146 -26 197 -21 36 3 99 9 138 12 76 7 85 12 112 67 16 32 16 32 96
33 125 1 218 38 261 101 21 32 21 38 26 700 7 835 -4 1245 -53 2054 -12 213
-16 335 -10 351 8 21 18 26 63 31 73 9 180 8 261 -2 59 -8 73 -14 111 -49 90
-83 253 -138 376 -127 101 9 271 42 343 67 72 25 142 21 182 -10 15 -12 35
-22 44 -22 10 0 48 -18 85 -41 37 -22 82 -43 101 -46 69 -11 189 23 487 136
59 23 140 48 180 55 204 40 192 52 224 -219 36 -306 85 -534 152 -710 l27 -70
0 -931 c0 -1015 3 -970 -57 -995 -17 -7 -58 -30 -91 -52 -34 -22 -207 -125
-384 -228 -377 -220 -457 -271 -599 -379 -57 -44 -109 -80 -115 -80 -36 0
-299 -218 -299 -247 0 -7 11 -20 25 -29 33 -22 81 -9 144 38 25 18 101 65 170
106 200 116 693 424 928 580 118 78 219 142 223 142 32 0 45 -96 54 -425 4
-127 2 -229 -5 -280 -6 -44 -13 -158 -16 -253 -4 -143 -2 -185 13 -245 16 -66
17 -121 11 -722 -9 -872 -22 -1098 -77 -1346 -11 -48 -33 -164 -50 -259 -17
-94 -37 -184 -45 -200 -37 -72 -130 -119 -317 -159 -73 -16 -146 -34 -163 -41
-72 -27 -145 -99 -145 -143 0 -27 62 -89 110 -111 59 -27 270 -33 535 -16 228
14 302 27 424 74 108 42 113 42 149 16 29 -21 134 -39 235 -40 l58 0 45 95
c57 122 72 181 86 338 9 102 9 144 -2 209 -15 96 -8 300 21 578 50 485 55 570
69 1205 15 654 29 849 76 1022 13 50 37 157 53 236 30 150 46 196 62 180 5 -5
29 -153 54 -328 54 -381 64 -429 122 -563 24 -57 57 -141 74 -187 16 -46 65
-162 108 -258 44 -96 100 -225 125 -288 54 -135 150 -457 207 -694 23 -93 57
-235 76 -315 19 -80 60 -230 90 -335 31 -104 64 -221 75 -260 18 -70 61 -347
73 -482 6 -63 11 -77 42 -113 l35 -41 -40 -97 c-51 -124 -102 -284 -102 -321
0 -76 146 -112 314 -76 89 19 144 56 269 180 123 123 145 159 162 276 12 76
19 98 45 131 56 69 64 99 68 270 5 175 -5 270 -48 463 -16 72 -40 209 -55 306
-14 97 -35 212 -46 255 -35 133 -38 146 -49 259 -15 151 -41 273 -105 495 -68
233 -106 338 -183 505 -89 195 -135 347 -163 545 -16 110 -15 398 0 475 8 39
15 229 20 544 7 456 9 485 26 497 10 8 29 14 42 14 31 0 55 52 95 209 27 104
30 139 38 351 5 129 9 281 9 338 1 99 2 104 28 128 33 30 133 79 312 151 144
58 184 82 274 170 62 61 68 80 38 129 -24 40 -69 50 -137 29 -49 -14 -100 -43
-314 -179 -58 -36 -111 -66 -117 -66 -7 0 -13 10 -13 23 0 12 42 195 94 407
52 212 108 444 125 515 17 72 44 182 61 245 30 112 30 116 15 175 -8 33 -22
143 -31 245 -17 193 -25 228 -92 390 -44 109 -106 322 -123 425 -27 170 -150
597 -200 696 -38 77 -74 117 -187 206 -51 41 -142 118 -201 171 -59 53 -132
118 -163 144 -41 35 -64 65 -93 125 -27 57 -55 95 -101 140 -60 58 -64 64 -64
107 0 55 39 132 134 266 126 177 175 291 195 449 6 46 13 86 15 89 3 2 54 -3
115 -12 143 -21 201 -21 201 -1 0 35 -104 104 -268 180 l-83 39 6 65 c3 36 10
136 16 221 6 85 21 252 34 370 45 410 45 443 -3 461 -34 13 -371 91 -512 117
-122 24 -313 39 -596 47 l-201 7 -20 -49z m291 -169 c27 -106 -100 -834 -145
-834 -17 0 -9 105 26 319 19 119 43 285 54 369 11 84 23 157 26 162 12 19 33
10 39 -16z m647 -307 c-31 -267 -61 -454 -78 -474 -40 -50 32 605 78 712 l13
30 4 -43 c2 -24 -6 -125 -17 -225z m-47 -1853 c33 -13 16 -51 -57 -135 -111
-127 -505 -500 -527 -499 -19 1 -34 26 -50 91 -25 95 -25 140 -1 171 25 31
385 275 471 318 36 18 83 39 105 46 22 7 41 13 42 13 1 1 8 -2 17 -5z m-5815
-170 c129 -63 137 -69 245 -177 116 -117 171 -187 164 -209 -3 -8 -20 2 -48
30 -24 24 -53 48 -64 54 -12 6 -46 32 -76 58 -30 26 -117 89 -193 141 -148
100 -217 154 -217 171 0 18 50 0 189 -68z m4872 -501 c4 -65 -12 -106 -118
-290 -94 -165 -123 -242 -123 -328 0 -36 4 -65 9 -65 5 0 42 48 82 108 128
189 243 338 247 319 8 -40 -263 -457 -351 -539 -83 -79 -94 16 -26 237 31 100
138 353 210 498 37 73 68 99 70 60z m-2925 -1523 c13 -25 30 -76 39 -115 16
-68 36 -282 28 -297 -7 -14 -111 -9 -126 6 -10 11 -15 64 -20 226 -4 117 -4
217 -1 222 3 5 18 8 32 6 19 -2 31 -15 48 -48z m1073 -53 c6 -8 20 -52 31 -98
12 -46 30 -120 40 -163 21 -84 27 -230 10 -256 -8 -13 -17 -11 -64 13 -30 16
-57 36 -61 44 -3 9 -10 61 -15 117 -5 56 -15 152 -21 215 -11 107 -11 115 7
128 23 17 58 17 73 0z m3273 -1701 c31 -14 115 -39 187 -57 73 -17 139 -38
147 -46 15 -15 19 -61 6 -79 -15 -24 -54 -34 -129 -36 -109 -2 -170 9 -233 40
-92 46 -125 127 -74 183 22 24 30 24 96 -5z"/>
</g>
</svg>
