<?xml version="1.0" standalone="no"?>
<!DOCTYPE svg PUBLIC "-//W3C//DTD SVG 20010904//EN"
 "http://www.w3.org/TR/2001/REC-SVG-20010904/DTD/svg10.dtd">
<svg version="1.0" xmlns="http://www.w3.org/2000/svg"
 width="770.000000pt" height="1280.000000pt" viewBox="0 0 770.000000 1280.000000"
 preserveAspectRatio="xMidYMid meet">
<g transform="translate(0.000000,1280.000000) scale(0.100000,-0.100000)"
fill="#000000" stroke="none">
<path d="M5555 12791 c-75 -5 -99 -11 -140 -35 -27 -16 -57 -33 -65 -37 -34
-19 -145 -50 -214 -59 -112 -16 -131 -24 -199 -85 -64 -58 -107 -117 -107
-147 0 -16 20 -65 59 -145 14 -30 14 -40 -2 -110 -9 -43 -26 -136 -39 -207
-21 -122 -21 -130 -5 -158 25 -44 21 -83 -19 -167 -20 -42 -39 -95 -42 -118
-4 -36 -1 -46 21 -65 13 -12 44 -27 67 -32 34 -9 47 -19 61 -46 10 -19 28 -42
39 -52 11 -9 20 -27 20 -41 0 -14 8 -52 18 -84 13 -39 17 -78 14 -118 -8 -116
32 -155 151 -148 39 3 114 0 166 -5 101 -10 123 -24 137 -82 4 -14 18 -49 31
-77 24 -51 25 -54 9 -93 -9 -22 -16 -48 -16 -58 0 -9 -11 -39 -25 -67 -13 -27
-25 -57 -25 -65 -1 -34 -71 -124 -217 -279 -57 -61 -143 -205 -143 -239 0 -7
-6 -34 -14 -60 -19 -64 -64 -355 -81 -532 -42 -416 -68 -576 -106 -640 -5 -8
-14 -26 -19 -40 -19 -46 -38 -75 -62 -90 -14 -8 -40 -25 -59 -37 -40 -27 -69
-28 -271 -13 -76 6 -152 17 -170 24 -18 8 -75 17 -127 21 -101 7 -96 5 -264
116 -64 43 -84 46 -126 24 -18 -9 -54 -13 -102 -12 -73 1 -76 0 -192 -61 -64
-34 -127 -62 -138 -62 -11 0 -33 7 -48 15 -16 8 -78 23 -137 35 -118 22 -293
59 -389 83 -56 14 -120 42 -148 65 -18 16 -225 82 -284 92 -29 5 -74 18 -99
30 l-47 20 7 108 c3 59 7 191 7 294 1 164 -2 191 -19 230 -24 55 -110 202
-194 330 -35 53 -71 109 -81 125 -9 15 -33 52 -52 82 -18 29 -38 72 -43 95
-32 134 -94 285 -152 366 -10 15 -22 38 -25 53 -4 15 -11 30 -16 33 -10 6 -10
167 0 204 l7 25 145 1 c152 1 183 9 223 52 15 17 16 26 8 54 -6 18 -13 83 -15
143 -5 108 -5 111 25 163 23 41 41 58 81 78 70 36 78 42 67 62 -45 87 -100
212 -100 227 0 10 12 31 27 47 29 30 30 17 -11 157 -24 79 -40 185 -33 213 7
28 27 50 111 126 l59 53 -39 41 c-21 22 -62 51 -90 65 -53 25 -70 39 -104 85
-13 17 -43 34 -85 48 -36 12 -67 26 -70 31 -4 5 -13 9 -21 9 -8 0 -35 9 -60
21 -82 37 -292 47 -606 30 -101 -5 -130 -10 -146 -24 -11 -10 -40 -24 -64 -32
-81 -24 -157 -67 -166 -94 -5 -15 -26 -42 -46 -61 -36 -35 -65 -96 -92 -194
-7 -27 -21 -57 -30 -68 -14 -15 -18 -46 -22 -171 l-5 -152 42 -87 c23 -49 48
-93 54 -100 7 -7 27 -37 45 -66 28 -45 32 -61 32 -120 0 -40 6 -79 15 -96 8
-15 15 -36 15 -46 0 -9 14 -36 31 -59 37 -51 35 -73 -8 -82 -36 -7 -63 -25
-63 -42 0 -9 -20 -56 -58 -137 -10 -19 -32 -44 -50 -55 -62 -38 -247 -177
-290 -218 -47 -45 -132 -152 -132 -166 0 -4 -9 -16 -19 -25 -11 -10 -39 -57
-62 -104 -24 -48 -49 -94 -55 -102 -43 -54 -73 -289 -77 -595 -2 -145 14 -287
34 -311 5 -6 20 -67 34 -135 27 -130 38 -172 90 -334 18 -55 38 -120 44 -145
7 -25 19 -65 27 -89 7 -24 11 -47 9 -52 -3 -5 1 -19 9 -31 8 -13 18 -41 22
-63 3 -22 11 -45 16 -52 5 -6 13 -38 18 -70 6 -32 16 -89 25 -128 14 -64 21
-99 43 -225 5 -25 14 -55 20 -67 7 -12 12 -32 12 -45 0 -13 9 -41 20 -63 31
-60 25 -162 -17 -325 -14 -52 -20 -82 -44 -229 -5 -35 -17 -77 -25 -93 -12
-22 -12 -33 -4 -43 8 -10 11 -118 10 -372 0 -291 2 -371 15 -426 11 -49 15
-119 14 -274 0 -114 0 -219 1 -233 1 -14 -5 -86 -14 -160 -17 -143 -18 -298
-2 -341 6 -17 3 -151 -8 -400 -10 -206 -15 -386 -11 -401 7 -28 -6 -390 -31
-853 -14 -267 -34 -772 -35 -890 -1 -152 9 -534 15 -555 3 -14 9 -200 11 -415
6 -437 17 -742 28 -765 5 -10 -7 -45 -33 -95 -36 -72 -40 -87 -40 -154 0 -66
17 -150 41 -206 5 -11 10 -78 11 -150 3 -143 -4 -127 78 -164 43 -20 142 -42
220 -51 73 -7 157 -36 210 -70 40 -26 186 -68 315 -91 100 -18 174 -22 435
-26 214 -4 328 -2 356 6 96 26 174 122 159 197 -12 69 -107 124 -255 149 -55
10 -179 81 -231 134 -15 14 -45 41 -68 59 -22 18 -41 41 -41 51 0 17 28 18
508 17 504 -1 507 -1 582 22 122 38 169 63 237 127 l64 60 -16 35 c-46 98 -49
100 -241 110 -87 5 -212 9 -276 10 -126 0 -190 16 -208 51 -16 30 -11 43 25
67 40 25 43 40 16 68 -38 39 -61 53 -98 60 -57 10 -135 43 -160 66 -13 12 -34
58 -49 107 -23 73 -34 92 -71 127 l-45 41 27 58 c32 67 30 124 -6 202 -19 41
-23 74 -30 233 -4 102 -13 210 -19 240 -6 30 -15 80 -20 110 -5 30 -16 91 -25
135 -8 44 -15 126 -15 182 0 92 3 110 34 191 19 50 38 108 41 129 4 21 16 70
27 108 11 39 30 102 41 140 32 113 57 197 72 245 16 49 34 131 70 315 12 66
44 224 70 350 26 127 52 255 57 285 5 30 16 81 24 113 54 217 73 380 104 932
24 434 25 436 61 525 33 83 54 232 45 323 -7 68 -35 63 237 41 144 -11 206
-13 223 -5 29 13 73 97 80 154 6 45 -13 133 -41 188 -10 19 -37 59 -61 90 -24
31 -71 107 -104 169 -34 62 -74 131 -89 154 -111 162 -253 462 -281 591 -6 33
-18 79 -25 102 -12 37 -12 45 1 58 18 18 13 17 89 5 33 -5 144 -21 248 -35
103 -14 207 -32 230 -40 23 -8 104 -27 180 -41 131 -25 139 -26 157 -9 11 10
24 34 31 54 6 20 20 55 31 79 16 34 25 42 47 42 33 0 51 -14 80 -62 17 -28 33
-41 64 -50 25 -7 57 -27 78 -50 31 -33 42 -38 82 -38 29 0 59 -8 81 -21 34
-20 38 -20 83 -6 27 8 64 18 83 21 19 4 55 16 79 28 25 12 63 22 85 22 l41 1
3 -52 c2 -32 9 -56 19 -65 19 -16 463 -14 657 3 82 7 122 7 129 0 7 -7 5 -123
-8 -370 -14 -288 -16 -383 -7 -478 13 -142 8 -710 -7 -803 -7 -40 -8 -126 -4
-223 l6 -158 28 -6 27 -5 -1 -142 c-2 -157 7 -243 30 -298 9 -20 13 -46 10
-58 -3 -11 1 -46 8 -78 7 -31 20 -100 29 -152 16 -90 36 -194 57 -288 5 -23 9
-65 9 -93 0 -29 4 -68 9 -88 12 -48 36 -232 62 -481 20 -194 21 -220 10 -282
-6 -35 -18 -156 -26 -271 -16 -218 -22 -257 -54 -384 -11 -43 -25 -121 -31
-173 -6 -52 -15 -111 -20 -130 -11 -45 -26 -230 -45 -585 -36 -666 -52 -811
-93 -892 -15 -29 -55 -109 -90 -178 -36 -73 -70 -129 -81 -133 -20 -7 -80 -82
-104 -129 -25 -47 -86 -88 -152 -102 -60 -12 -197 -32 -225 -32 -8 -1 -69 -5
-135 -11 -135 -10 -200 -33 -241 -81 -22 -27 -25 -38 -21 -80 3 -39 11 -56 42
-87 21 -22 52 -46 69 -54 83 -38 698 -56 826 -24 36 9 79 19 95 21 17 3 81 14
143 26 81 15 147 21 230 20 301 -5 477 1 524 17 54 18 54 16 64 178 3 60 12
126 19 146 7 21 16 68 20 106 18 195 76 460 160 724 8 25 19 77 25 115 6 39
16 88 22 110 5 22 19 96 29 165 11 69 23 152 29 185 8 55 30 347 46 628 6 102
9 117 24 117 23 0 30 -20 30 -83 0 -86 40 -271 67 -312 7 -11 13 -27 13 -36 0
-10 6 -30 14 -46 39 -78 86 -200 86 -225 0 -10 -11 -41 -25 -68 -41 -82 -50
-122 -112 -550 -2 -19 1 -127 8 -240 19 -295 17 -360 -15 -450 -50 -145 -65
-185 -80 -215 -9 -16 -16 -37 -16 -46 0 -9 -9 -24 -19 -33 -11 -10 -25 -32
-32 -49 -15 -38 -106 -131 -137 -141 -12 -4 -22 -12 -22 -17 0 -5 -5 -9 -12
-9 -6 0 -19 -6 -27 -14 -40 -35 -174 -96 -233 -106 -178 -29 -246 -52 -296
-98 -28 -26 -32 -37 -32 -82 0 -50 2 -55 58 -112 71 -74 67 -73 392 -89 385
-18 677 6 835 72 80 33 213 62 315 70 186 14 304 38 325 65 11 14 14 52 15
147 0 81 4 136 12 150 23 41 30 1349 10 1762 -6 138 -17 356 -22 485 -10 225
-20 343 -40 475 -31 201 -53 322 -76 415 -7 30 -20 87 -29 125 -9 39 -20 79
-24 90 -17 38 -34 140 -42 245 -10 133 -19 179 -51 260 -43 107 -48 172 -52
595 -5 453 -13 669 -27 736 -9 38 -7 54 10 98 12 28 21 69 21 90 l0 38 128 -1
c116 -1 131 1 176 23 27 13 74 48 106 78 l58 53 114 0 c103 0 119 2 149 23 30
20 34 28 37 75 2 29 -18 241 -43 472 -25 231 -45 432 -45 447 1 45 -19 243
-61 593 -5 47 -14 139 -19 205 -5 66 -14 167 -20 225 -6 58 -15 159 -20 225
-6 66 -15 165 -20 220 -6 55 -14 154 -20 220 -5 66 -15 158 -20 205 -6 47 -15
130 -20 185 -5 55 -14 152 -20 215 -6 63 -15 176 -20 250 -17 235 -30 352 -61
520 -17 91 -65 249 -80 260 -3 3 -15 25 -26 50 -29 65 -103 159 -217 275 -92
93 -110 107 -206 153 -69 33 -134 56 -190 67 -151 30 -196 62 -293 212 -18 29
-37 45 -59 51 -42 10 -47 43 -19 107 11 25 25 70 30 101 6 30 13 60 17 66 4 5
12 47 20 92 12 76 21 111 60 226 22 67 36 252 24 319 -5 30 -10 71 -10 90 0
20 -7 49 -15 65 -8 15 -15 37 -15 47 0 31 -29 92 -59 124 -16 17 -31 45 -35
63 -7 37 -41 92 -58 92 -6 0 -34 17 -62 39 -54 41 -107 71 -126 71 -7 0 -23 9
-37 20 -15 12 -41 20 -62 20 -20 0 -58 7 -85 15 -50 15 -90 16 -251 6z"/>
</g>
</svg>
