<?xml version="1.0" standalone="no"?>
<!DOCTYPE svg PUBLIC "-//W3C//DTD SVG 20010904//EN"
 "http://www.w3.org/TR/2001/REC-SVG-20010904/DTD/svg10.dtd">
<svg version="1.0" xmlns="http://www.w3.org/2000/svg"
 width="767.000000pt" height="1280.000000pt" viewBox="0 0 767.000000 1280.000000"
 preserveAspectRatio="xMidYMid meet">
<g transform="translate(0.000000,1280.000000) scale(0.100000,-0.100000)"
fill="#000000" stroke="none">
<path d="M5060 12789 c-358 -13 -624 -45 -707 -85 -68 -33 -134 -107 -161
-182 -12 -32 -38 -80 -58 -105 -29 -37 -37 -57 -38 -91 -1 -53 18 -78 89 -113
90 -45 95 -53 95 -159 0 -87 12 -144 31 -144 5 0 16 -14 25 -31 19 -37 12 -72
-42 -216 -40 -109 -42 -153 -9 -208 14 -22 25 -45 25 -52 0 -25 -56 -76 -109
-99 -66 -30 -59 -38 39 -48 115 -12 140 -17 140 -31 0 -7 -16 -64 -36 -127
-48 -155 -52 -188 -24 -213 19 -18 36 -20 134 -19 74 0 147 8 220 23 60 13
122 20 140 17 17 -3 58 -1 91 5 109 19 145 22 145 12 0 -6 -16 -37 -35 -69
-19 -32 -35 -70 -35 -84 0 -41 -37 -68 -119 -86 -43 -10 -84 -26 -101 -41 -18
-14 -62 -89 -110 -185 -62 -121 -89 -164 -111 -176 -39 -23 -37 -34 11 -61 29
-16 40 -29 40 -46 0 -13 -30 -84 -66 -157 -77 -157 -89 -215 -123 -574 -23
-242 -26 -437 -10 -584 17 -152 15 -325 -5 -400 -40 -154 -92 -223 -412 -550
-121 -124 -226 -235 -232 -247 -7 -12 -12 -38 -12 -58 0 -32 -4 -38 -35 -51
-19 -8 -95 -19 -167 -25 -129 -10 -192 -21 -213 -36 -6 -5 -30 -33 -54 -63
-67 -83 -153 -170 -185 -187 -24 -12 -64 -14 -255 -8 -266 7 -472 21 -522 35
-20 6 -44 19 -54 30 -16 18 -16 22 8 92 14 40 53 145 87 232 86 222 110 321
110 460 0 194 -43 348 -135 486 -57 85 -257 295 -431 451 -142 128 -171 173
-183 281 -9 80 0 146 20 159 8 5 83 9 167 9 204 0 242 16 242 103 0 56 29 208
49 252 15 34 25 43 59 53 70 21 76 51 32 152 -34 78 -36 112 -15 252 9 64 24
116 42 150 24 46 27 63 25 134 -2 75 0 83 23 107 15 15 47 30 75 36 28 6 73
16 100 22 28 6 50 15 50 20 0 25 -170 46 -239 29 -86 -20 -112 8 -151 168 -12
51 -31 103 -42 117 -18 23 -25 25 -111 25 -131 0 -634 -60 -938 -110 -254 -43
-283 -68 -244 -210 8 -30 16 -79 16 -109 2 -84 -19 -98 -187 -132 -139 -28
-185 -49 -154 -69 19 -12 130 -12 230 0 41 4 76 7 78 5 1 -1 -4 -35 -12 -75
-15 -71 -27 -95 -100 -215 -80 -130 -73 -181 43 -296 84 -84 147 -119 256
-145 69 -17 105 -37 105 -58 0 -7 9 -19 20 -29 17 -14 20 -24 14 -55 -10 -58
-153 -331 -260 -497 -114 -178 -177 -304 -204 -411 -58 -223 6 -602 170 -1020
65 -166 110 -369 110 -501 0 -83 -22 -191 -65 -320 -37 -110 -50 -137 -172
-353 -112 -199 -259 -499 -283 -577 -25 -82 -23 -150 4 -222 16 -40 15 -56 -4
-260 -11 -119 -29 -346 -40 -506 -12 -159 -30 -389 -40 -510 -26 -288 -40
-559 -40 -770 0 -93 -5 -240 -10 -325 -14 -240 -101 -904 -171 -1305 -16 -93
-41 -242 -54 -330 -14 -88 -41 -257 -60 -375 -19 -118 -35 -235 -35 -260 1
-67 28 -115 119 -214 79 -86 110 -136 145 -236 9 -25 36 -66 60 -93 25 -26 55
-66 68 -89 49 -88 127 -125 334 -157 71 -12 151 -27 178 -36 27 -8 70 -15 95
-15 65 0 89 -9 97 -34 15 -50 116 -126 168 -126 17 0 46 9 65 21 43 26 72 22
211 -27 101 -35 110 -37 245 -37 144 -1 186 8 208 44 20 33 0 63 -70 105 -37
23 -69 48 -71 56 -4 20 40 38 233 97 316 97 392 129 463 196 107 99 119 173
128 788 6 439 3 571 -26 1307 -5 140 -19 613 -30 1050 -25 971 -38 1362 -51
1500 -21 222 -22 278 -8 312 39 96 -17 492 -146 1024 -53 218 -56 256 -19 272
40 19 261 61 375 72 153 15 162 17 212 56 65 51 124 57 382 43 116 -6 226 -11
246 -11 82 0 173 64 270 192 29 39 61 72 70 75 24 8 84 -19 126 -55 26 -23 40
-29 56 -24 12 4 83 41 157 83 132 74 279 140 311 141 9 0 26 -8 38 -17 18 -15
27 -45 46 -153 13 -74 29 -156 34 -182 6 -26 15 -164 21 -305 5 -142 18 -328
29 -413 11 -85 27 -234 36 -330 8 -96 25 -229 36 -296 51 -310 59 -446 34
-591 -8 -49 -19 -162 -25 -253 -13 -194 -23 -289 -55 -505 -45 -301 -56 -657
-25 -850 22 -143 99 -1246 116 -1675 7 -189 -10 -575 -30 -700 -17 -99 -98
-335 -161 -466 -51 -105 -121 -189 -167 -199 -17 -4 -51 -22 -75 -41 -24 -18
-84 -54 -132 -79 -189 -98 -212 -182 -69 -246 47 -21 67 -24 188 -23 214 0
414 51 663 168 l117 56 198 -12 c108 -6 208 -9 222 -5 34 9 50 38 61 111 12
91 22 96 178 96 141 0 142 0 223 78 56 54 73 98 88 227 23 191 40 2188 20
2350 -5 44 -16 197 -25 340 -20 327 -40 573 -61 740 -18 143 -16 317 5 353
l13 24 201 -7 c111 -4 205 -12 208 -17 10 -15 17 -116 33 -453 17 -332 28
-563 51 -1040 9 -165 24 -415 35 -555 28 -369 55 -908 80 -1615 12 -324 24
-446 46 -480 17 -25 41 -38 55 -29 11 7 11 706 -1 874 -4 69 -13 193 -19 275
-6 83 -15 341 -21 575 -12 494 -60 1560 -91 2030 -20 319 -20 439 1 496 6 15
32 51 59 79 151 161 316 513 357 764 19 116 22 388 4 481 -6 36 -14 90 -17
121 -5 54 -3 60 37 119 23 34 46 77 52 96 5 20 23 45 45 61 20 16 59 49 87 74
l50 47 -2 113 c-2 151 -19 291 -45 364 -32 92 -35 287 -7 425 26 130 68 274
125 436 25 69 58 173 75 231 17 58 52 154 77 212 70 160 67 197 -61 663 -120
434 -279 941 -377 1200 -27 71 -60 174 -73 228 -31 124 -109 289 -170 356 -53
60 -170 143 -258 184 -35 16 -112 43 -173 59 -165 45 -275 87 -430 166 -77 40
-152 75 -167 78 -32 8 -129 95 -159 143 -17 28 -20 46 -17 87 4 43 16 69 67
147 34 52 90 150 124 218 l62 124 0 131 c-1 128 -2 135 -37 223 -53 134 -134
292 -181 352 -29 38 -74 76 -155 129 -176 115 -133 108 -552 92z m748 -1621
c51 -55 54 -115 12 -230 -46 -123 -292 -640 -312 -652 -28 -17 -67 12 -135
104 -78 105 -138 220 -128 249 4 12 20 24 41 30 20 5 52 22 72 37 69 52 185
169 198 200 7 18 42 69 77 115 35 46 74 103 87 127 27 48 55 55 88 20z m-3745
-429 c43 -12 49 -35 12 -49 -14 -5 -75 -14 -135 -20 -61 -6 -201 -24 -313 -41
-283 -43 -697 -54 -697 -19 0 15 93 38 263 64 386 59 784 89 870 65z m3158
-449 c14 -11 32 -34 39 -51 12 -28 11 -36 -14 -85 -32 -66 -137 -234 -178
-286 -16 -21 -36 -38 -44 -38 -10 0 -14 12 -14 38 0 70 31 307 46 353 30 92
94 119 165 69z m1172 -727 c76 -94 133 -185 157 -251 24 -63 83 -175 177 -334
35 -59 63 -114 63 -123 0 -9 -10 -30 -21 -47 l-21 -30 30 -31 c37 -40 55 -74
48 -93 -9 -24 -35 -16 -80 26 -52 48 -76 94 -76 145 0 49 -53 206 -95 280 -19
33 -52 96 -74 140 -22 44 -59 105 -82 135 -47 62 -94 157 -104 213 -11 58 16
47 78 -30z m817 -837 c0 -27 -83 -86 -150 -107 -67 -21 -160 -36 -160 -26 0
14 73 55 175 99 119 52 135 56 135 34z m-389 -218 c41 -45 94 -151 77 -157
-21 -7 -146 159 -134 178 12 18 26 13 57 -21z m-30 -159 c31 -31 22 -89 -41
-284 -63 -193 -125 -350 -218 -550 -95 -205 -92 -187 -35 -229 26 -20 124 -75
217 -122 195 -101 266 -152 266 -191 0 -24 -2 -25 -35 -20 -94 15 -303 127
-426 226 -121 98 -142 113 -161 107 -24 -6 -40 26 -32 60 4 15 44 107 90 205
45 98 94 218 109 266 15 48 49 142 77 208 28 66 66 164 84 219 45 133 61 149
105 105z m-5319 -146 c35 -38 65 -97 83 -168 21 -79 114 -288 180 -405 30 -52
61 -122 70 -155 8 -32 21 -65 29 -73 7 -7 55 -26 107 -41 108 -32 142 -48 136
-64 -11 -31 -237 8 -285 48 -17 14 -36 49 -51 92 -13 37 -50 122 -81 188 -32
66 -70 149 -85 184 -22 53 -145 407 -145 417 0 12 20 0 42 -23z m-309 -740
c19 -32 53 -94 77 -138 99 -185 267 -388 357 -434 56 -28 175 -47 423 -66 233
-18 288 -28 270 -50 -19 -22 -69 -27 -156 -16 -43 6 -167 18 -274 26 -340 27
-389 46 -483 195 -50 79 -277 518 -277 535 0 3 6 5 14 5 8 0 30 -26 49 -57z
m5267 -263 c0 -48 -133 -205 -199 -235 -22 -9 -41 -25 -43 -34 -2 -9 2 -54 9
-101 22 -156 13 -278 -20 -268 -29 10 -50 110 -51 236 -1 117 0 125 22 142 12
10 42 45 66 77 66 90 170 193 195 193 11 0 21 -5 21 -10z m-60 -473 c17 -71
50 -117 82 -117 11 0 82 16 158 35 167 42 180 43 180 12 0 -49 -55 -77 -190
-97 -41 -6 -86 -18 -100 -27 -25 -17 -97 -22 -119 -8 -25 15 -43 81 -49 179
-4 80 -3 98 8 94 8 -2 21 -34 30 -71z m-172 -238 c26 -33 59 -79 75 -101 27
-40 36 -91 18 -103 -14 -8 -62 55 -115 149 -72 126 -59 159 22 55z m663 12
c99 -71 175 -196 186 -308 l6 -58 -23 20 c-35 31 -250 347 -250 367 0 27 21
22 81 -21z m-921 13 c0 -9 -26 -58 -58 -109 -223 -355 -252 -758 -87 -1191 38
-97 131 -248 238 -383 37 -46 64 -88 61 -92 -27 -45 -198 98 -307 255 -115
169 -197 515 -183 779 17 329 151 672 291 742 38 19 45 19 45 -1z m440 -92 c0
-44 -25 -17 -28 29 -2 43 -2 43 13 19 8 -14 14 -35 15 -48z m362 -1 c96 -106
268 -433 287 -545 13 -74 15 -455 2 -475 -13 -19 -18 1 -36 144 -41 318 -106
510 -265 774 -38 64 -70 125 -70 134 0 32 38 17 82 -32z m-606 -128 c-25 -84
-49 -137 -66 -148 -5 -3 -10 1 -10 9 0 9 -4 16 -9 16 -8 0 -31 -104 -31 -140
0 -7 8 -22 17 -32 25 -28 21 -112 -7 -150 -33 -45 -45 -153 -31 -289 19 -192
113 -433 242 -617 32 -47 59 -89 59 -94 0 -19 -60 -6 -97 21 -50 36 -127 129
-158 192 -34 66 -100 261 -116 344 -21 104 -18 480 4 609 20 112 55 225 89
282 l23 38 10 -59 11 -60 22 65 c46 135 88 146 48 13z m254 -100 c0 -5 4 -35
10 -68 5 -33 19 -163 30 -290 19 -203 28 -285 55 -491 10 -76 -9 -76 -34 -2
-51 154 -78 333 -87 578 -7 167 0 280 17 280 5 0 9 -3 9 -7z m170 -74 c27 -51
75 -238 91 -346 14 -100 8 -429 -8 -457 -9 -17 -12 -12 -22 35 -14 67 -101
730 -101 768 0 24 7 41 16 41 2 0 13 -18 24 -41z"/>
</g>
</svg>
